<svg width="320" height="180" viewBox="0 0 320 180" fill="none" xmlns="http://www.w3.org/2000/svg">
  <rect width="320" height="180" rx="28" fill="url(#bg)"/>
  <rect x="18" y="18" width="284" height="144" rx="22" fill="white" fill-opacity="0.94"/>
  <rect x="38" y="48" width="74" height="68" rx="22" fill="#102A63"/>
  <path d="M56 71C56 64.9 60.9 60 67 60H83C89.1 60 94 64.9 94 71C94 74.5 92.4 77.6 89.9 79.6C93.6 81.8 96 85.8 96 90.4C96 97.4 90.4 103 83.4 103H67C60.9 103 56 98.1 56 92V71ZM67 76.5H81.5C84.5 76.5 87 74 87 71C87 68 84.5 65.5 81.5 65.5H67C65.1 65.5 63.5 67.1 63.5 69V76.5H67ZM67 97.5H82.8C86.7 97.5 89.8 94.4 89.8 90.5C89.8 86.6 86.7 83.5 82.8 83.5H63.5V94C63.5 95.9 65.1 97.5 67 97.5Z" fill="#F4B544"/>
  <text x="130" y="78" fill="#102A63" font-family="Segoe UI, Arial, sans-serif" font-size="24" font-weight="700">Sunway</text>
  <text x="130" y="106" fill="#5B6785" font-family="Segoe UI, Arial, sans-serif" font-size="20" font-weight="600">College</text>
  <defs>
    <linearGradient id="bg" x1="20" y1="10" x2="298" y2="176" gradientUnits="userSpaceOnUse">
      <stop stop-color="#E9F3FF"/>
      <stop offset="1" stop-color="#FFF1D2"/>
    </linearGradient>
  </defs>
</svg>
